# xmcd
#
# Track frame offsets:
#	150
#	19727
#	32372
#	47027
#	62402
#	76950
#	90562
#	105435
#	118122
#	130010
#	143840
#	163970
#	173917
#	188095
#
# Disc length: 2691
#
# Revision: 2
# Processed by: cddbd v1.5.1PL0 Copyright (c) Steve Scherf et al.
# Submitted via: audiograbber 1.82.02
# Normalized: r1:DSETVAR1
#
DISCID=ac0a810e
DTITLE=Various Artist - Drive South
DYEAR=1999
DGENRE=Country
TTITLE0=The Mavricks - All You Ever Do Is Bring Me Down
TTITLE1=Dwight Yoakam - Honky Tonk Man
TTITLE2=Wynonna - Girls With Guitars
TTITLE3=Tim McGraw - I Like It, I Love it
TTITLE4=Sawyer Brown - Some Girls Do
TTITLE5=John Berry - Wrong Side Of Memphis
TTITLE6=Lyle Lovett - La County
TTITLE7=Fred Eaglesmith - 105
TTITLE8=Junior Brown - Highway Patrol
TTITLE9=George Ducas - Teardrops
TTITLE10=Delbert McClinton - Everytime I Roll the Dice
TTITLE11=BR5-49 - I Ain't Never
TTITLE12=Suzy Boguss - Drive South
TTITLE13=Hal Ketchum - Hearts Are Gonna Roll
EXTD=YEAR: 1999
EXTT0=
EXTT1=
EXTT2=
EXTT3=
EXTT4=
EXTT5=
EXTT6=
EXTT7=
EXTT8=
EXTT9=
EXTT10=
EXTT11=
EXTT12=
EXTT13=
PLAYORDER=
